# xmcd
#
# Track frame offsets:
#	150
#	10892
#	22532
#	35200
#	48802
#	71075
#	92150
#	103735
#	113157
#	128520
#	141645
#	154752
#	185757
#
# Disc length: 2657 seconds
#
# Revision: 1
# Processed by: cddbd v1.4PL0 Copyright (c) Steve Scherf et al.
# Submitted via: audiograbber 1.81.03
#
DISCID=ae0a5f0d
DTITLE=The Electric Kings  - Electronic - CD 1
DYEAR=1997
DGENRE=Blues
TTITLE0=In The Mood
TTITLE1=Bonus Pay
TTITLE2=Two Headed Woman
TTITLE3=Who Well Be Next
TTITLE4=Pee-Bone Blues
TTITLE5=Lonesome Road Blues
TTITLE6=I'm Your Boogie Man
TTITLE7=Juicer
TTITLE8=Blue Bird Blues
TTITLE9=Boogiehouse Stomp
TTITLE10=Straighten 'Up
TTITLE11=Down Child
TTITLE12=My Baby
EXTD=
EXTT0=
EXTT1=
EXTT2=
EXTT3=
EXTT4=
EXTT5=
EXTT6=
EXTT7=
EXTT8=
EXTT9=
EXTT10=
EXTT11=
EXTT12=
PLAYORDER=
